<?xml version="1.0" encoding="UTF-8"?>
<svg width="211px" height="24px" viewBox="0 0 211 24" version="1.1" xmlns="http://www.w3.org/2000/svg" xmlns:xlink="http://www.w3.org/1999/xlink">
    <!-- Generator: Sketch 57.1 (83088) - https://sketch.com -->
    <title>Group 2</title>
    <desc>Created with Sketch.</desc>
    <g id="Page-1" stroke="none" stroke-width="1" fill="none" fill-rule="evenodd">
        <g id="Artboard" transform="translate(-58.000000, -20.000000)">
            <g id="Group-2" transform="translate(58.000000, 15.000000)">
                <path d="M44.6068958,7.86457667 L44.6068958,20.5216297 C44.6068958,21.8246755 43.5928216,22.8908715 42.3108087,22.9740823 L42.1492156,22.97931 L42.1485511,22.9518965 L42.0345173,22.9479939 C40.7525044,22.8647831 39.7384302,21.798587 39.7384302,20.4955413 L39.7375511,10.2618965 L38.9371641,10.262034 C37.6538102,10.262034 36.6018081,9.27149921 36.5039791,8.01325091 L36.4965511,7.84750944 L36.4965511,7.82142102 L36.4975511,7.82089646 L36.5017425,7.68703847 C36.5843754,6.41392846 37.6431673,5.40689646 38.9371641,5.40689646 L42.1492156,5.40689646 C43.5065549,5.40689646 44.6068958,6.50723737 44.6068958,7.86457667 Z" id="Combined-Shape" fill="#0076FF"></path>
                <path d="M13.4970044,5.61115699 C13.6419966,5.74733136 13.7144916,5.92605754 13.7144916,6.14734089 C13.7144916,6.36862424 13.6419966,6.54309504 13.4970044,6.67075851 C13.3520121,6.79842198 13.1686423,6.86225276 12.9468895,6.86225276 L7.65043469,6.86225276 L7.65043469,22.5137161 C7.65043469,22.7349994 7.57367525,22.917981 7.42015405,23.0626663 C7.26663285,23.2073515 7.07899865,23.2796931 6.85724581,23.2796931 C6.61843506,23.2796931 6.42653645,23.2073515 6.28154421,23.0626663 C6.13655196,22.917981 6.06405693,22.7349994 6.06405693,22.5137161 L6.06405693,6.86225276 L0.767602143,6.86225276 C0.545849304,6.86225276 0.362479515,6.79416659 0.217487274,6.65799222 C0.072495033,6.52181785 0,6.34309168 0,6.12180832 C0,5.91754677 0.072495033,5.74733136 0.217487274,5.61115699 C0.362479515,5.47498262 0.545849304,5.40689646 0.767602143,5.40689646 L12.9468895,5.40689646 C13.1686423,5.40689646 13.3520121,5.47498262 13.4970044,5.61115699 Z M22.2962836,20.2157851 C21.7333725,21.2541147 20.9572492,22.0668932 19.9678904,22.6541452 C18.9785316,23.2413972 17.8783129,23.5350188 16.6672012,23.5350188 C15.4560895,23.5350188 14.3558708,23.2413972 13.366512,22.6541452 C12.3771532,22.0668932 11.6010299,21.2541147 11.0381188,20.2157851 C10.4752078,19.1774555 10.1937565,18.0199908 10.1937565,16.743356 C10.1937565,15.4667213 10.4752078,14.3092565 11.0381188,13.270927 C11.6010299,12.2325974 12.3771532,11.4155634 13.366512,10.8198006 C14.3558708,10.2240377 15.4560895,9.92616075 16.6672012,9.92616075 C17.8783129,9.92616075 18.9785316,10.2240377 19.9678904,10.8198006 C20.9572492,11.4155634 21.7333725,12.2325974 22.2962836,13.270927 C22.8591946,14.3092565 23.1406459,15.4667213 23.1406459,16.743356 C23.1406459,18.0199908 22.8591946,19.1774555 22.2962836,20.2157851 Z M20.9657732,13.9858388 C20.5393254,13.1687926 19.9465719,12.5262295 19.1874949,12.0581301 C18.4284179,11.5900307 17.5883284,11.3559845 16.6672012,11.3559845 C15.746074,11.3559845 14.9102489,11.5900307 14.1597009,12.0581301 C13.4091528,12.5262295 12.8163993,13.1687926 12.3814226,13.9858388 C11.9464458,14.8028851 11.7289607,15.7220483 11.7289607,16.743356 C11.7289607,17.747642 11.9464458,18.6582944 12.3814226,19.4753407 C12.8163993,20.2923869 13.4091528,20.93495 14.1597009,21.4030494 C14.9102489,21.8711488 15.746074,22.105195 16.6672012,22.105195 C17.5883284,22.105195 18.4284179,21.8754042 19.1874949,21.4158157 C19.9465719,20.9562272 20.5393254,20.3179194 20.9657732,19.5008732 C21.392221,18.683827 21.6054417,17.7646638 21.6054417,16.743356 C21.6054417,15.7220483 21.392221,14.8028851 20.9657732,13.9858388 Z M34.2299383,10.9857623 C35.1510655,11.5559924 35.8717514,12.3474941 36.3920176,13.360291 C36.9122839,14.3730878 37.1724132,15.5092757 37.1724132,16.7688886 C37.1724132,18.0455233 36.9122839,19.1902219 36.3920176,20.2030188 C35.8717514,21.2158157 35.1553299,22.0115727 34.2427316,22.5903138 C33.3301334,23.1690549 32.3109385,23.4584211 31.1851164,23.4584211 C30.1957576,23.4584211 29.2874375,23.2243749 28.4601288,22.7562755 C27.6328202,22.2881761 26.971836,21.6626345 26.4771566,20.8796318 L26.4771566,27.6202294 C26.4771566,27.8415128 26.4046616,28.0244943 26.2596694,28.1691796 C26.1146771,28.3138649 25.9313073,28.3862064 25.7095545,28.3862064 C25.4878016,28.3862064 25.3044319,28.3138649 25.1594396,28.1691796 C25.0144474,28.0244943 24.9419523,27.8415128 24.9419523,27.6202294 L24.9419523,10.972996 C24.9419523,10.7517126 25.0144474,10.5644757 25.1594396,10.4112795 C25.3044319,10.2580834 25.4878016,10.1814864 25.7095545,10.1814864 C25.9313073,10.1814864 26.1146771,10.2580834 26.2596694,10.4112795 C26.4046616,10.5644757 26.4771566,10.7517126 26.4771566,10.972996 L26.4771566,12.7092105 C26.9206623,11.9091861 27.5603244,11.2793891 28.396162,10.8198006 C29.2319996,10.3602121 30.153113,10.1304213 31.1595297,10.1304213 C32.2853518,10.1304213 33.3088111,10.4155321 34.2299383,10.9857623 Z M33.423956,21.3519843 C34.1318593,20.9009067 34.6862331,20.2753651 35.087094,19.4753407 C35.4879549,18.6753162 35.6883823,17.7731746 35.6883823,16.7688886 C35.6883823,15.7816244 35.4879549,14.8922489 35.087094,14.1007354 C34.6862331,13.3092219 34.1318593,12.6879356 33.423956,12.236858 C32.7160527,11.7857804 31.9186074,11.560245 31.031596,11.560245 C30.1275267,11.560245 29.3172881,11.781525 28.6008559,12.2240917 C27.8844236,12.6666584 27.3300499,13.2836893 26.9377179,14.0752028 C26.545386,14.8667163 26.3492229,15.7646026 26.3492229,16.7688886 C26.3492229,17.7731746 26.545386,18.6753162 26.9377179,19.4753407 C27.3300499,20.2753651 27.8844236,20.9009067 28.6008559,21.3519843 C29.3172881,21.8030619 30.1275267,22.0285973 31.031596,22.0285973 C31.9186074,22.0285973 32.7160527,21.8030619 33.423956,21.3519843 Z" id="Top-Copy-9" fill="#0076FF"></path>
                <circle id="Oval-6-Copy-8" fill="#0076FF" cx="55.4206887" cy="14.1931032" r="8.78620675"></circle>
                <path d="M82.8877227,7.44137959 C83.076965,7.44137959 83.2386071,7.50840191 83.3726538,7.64244855 C83.5067004,7.7764952 83.5737227,7.94602224 83.5737227,8.15103475 L83.5737227,23.2903448 C83.5737227,23.4953574 83.5027579,23.6648844 83.3608262,23.798931 C83.2188944,23.9329777 83.0454249,24 82.8404124,24 C82.6196297,24 82.4382752,23.9329777 82.2963434,23.798931 C82.1544117,23.6648844 82.0834469,23.4953574 82.0834469,23.2903448 L82.0834469,10.2800002 L76.5244815,18.7012415 C76.3667795,18.906254 76.185425,19.0008737 75.9804125,18.9851035 L75.9331022,18.9851035 C75.7438598,18.9851035 75.5703903,18.8904838 75.4126884,18.7012415 L69.8537229,10.2326899 L69.8537229,23.2903448 C69.8537229,23.4953574 69.7867006,23.6648844 69.652654,23.798931 C69.5186073,23.9329777 69.3490803,24 69.1440678,24 C68.9390553,24 68.7734707,23.9329777 68.6473092,23.798931 C68.5211476,23.6648844 68.4580678,23.4953574 68.4580678,23.2903448 L68.4580678,8.15103475 C68.4580678,7.96179243 68.5250901,7.79620788 68.6591368,7.65427614 C68.7931834,7.5123444 68.9627104,7.44137959 69.167723,7.44137959 C69.2781143,7.44137959 69.396389,7.46897702 69.5225505,7.52417269 C69.6487121,7.57936837 69.7433318,7.65427567 69.8064126,7.74889683 L76.0040677,17.0453794 L82.2490331,7.74889683 C82.4225052,7.51234393 82.6353996,7.40983921 82.8877227,7.44137959 Z M97.1556365,17.944276 C97.1556365,19.1270405 96.8954322,20.1993976 96.3750158,21.1613794 C95.8545994,22.1233612 95.1370664,22.8763766 94.2223952,23.4204483 C93.3077239,23.96452 92.2905617,24.2365517 91.170878,24.2365517 C90.0511942,24.2365517 89.034032,23.96452 88.1193608,23.4204483 C87.2046896,22.8763766 86.4871565,22.1233612 85.9667401,21.1613794 C85.4463238,20.1993976 85.1861195,19.1270405 85.1861195,17.944276 C85.1861195,16.7615115 85.4463238,15.6891544 85.9667401,14.7271726 C86.4871565,13.7651908 87.2046896,13.0082328 88.1193608,12.4562761 C89.034032,11.9043193 90.0511942,11.628345 91.170878,11.628345 C92.2905617,11.628345 93.3077239,11.9043193 94.2223952,12.4562761 C95.1370664,13.0082328 95.8545994,13.7651908 96.3750158,14.7271726 C96.8954322,15.6891544 97.1556365,16.7615115 97.1556365,17.944276 Z M95.7363262,17.944276 C95.7363262,16.9980644 95.5392017,16.1464867 95.1449469,15.3895174 C94.750692,14.6325481 94.202686,14.0372322 93.5009124,13.6035519 C92.7991388,13.1698716 92.0224684,12.9530347 91.170878,12.9530347 C90.3192875,12.9530347 89.5465596,13.1698716 88.8526711,13.6035519 C88.1587826,14.0372322 87.6107766,14.6325481 87.2086367,15.3895174 C86.8064967,16.1464867 86.6054298,16.9980644 86.6054298,17.944276 C86.6054298,18.8747174 86.8064967,19.7184101 87.2086367,20.4753794 C87.6107766,21.2323487 88.1587826,21.8276645 88.8526711,22.2613449 C89.5465596,22.6950252 90.3192875,22.9118621 91.170878,22.9118621 C92.0224684,22.9118621 92.7991388,22.6989677 93.5009124,22.2731724 C94.202686,21.8473772 94.750692,21.2560038 95.1449469,20.4990345 C95.5392017,19.7420653 95.7363262,18.8904876 95.7363262,17.944276 Z M104.090447,11.628345 C105.557075,11.628345 106.633375,12.0580764 107.319378,12.9175519 C108.005381,13.7770275 108.348378,14.9164069 108.348378,16.3357243 L108.348378,23.2903448 C108.348378,23.4953574 108.277413,23.6648844 108.135481,23.798931 C107.99355,23.9329777 107.827965,24 107.638723,24 C107.43371,24 107.264183,23.9329777 107.130137,23.798931 C106.99609,23.6648844 106.929068,23.4953574 106.929068,23.2903448 L106.929068,16.4066898 C106.929068,15.3816272 106.672806,14.549762 106.160275,13.9110691 C105.647743,13.2723763 104.855303,12.9530347 103.78293,12.9530347 C103.104811,12.9530347 102.462186,13.1107342 101.855033,13.4261381 C101.247881,13.741542 100.75507,14.1633883 100.376585,14.6916898 C99.9981003,15.2199913 99.8088608,15.7916522 99.8088608,16.4066898 L99.8088608,23.2903448 C99.8088608,23.4953574 99.7418385,23.6648844 99.6077919,23.798931 C99.4737452,23.9329777 99.3042182,24 99.0992057,24 C98.8941931,24 98.7246661,23.9329777 98.5906195,23.798931 C98.4565728,23.6648844 98.3895505,23.4953574 98.3895505,23.2903448 L98.3895505,12.6928278 C98.3895505,12.4878153 98.4565728,12.3182882 98.5906195,12.1842416 C98.7246661,12.0501949 98.8941931,11.9831726 99.0992057,11.9831726 C99.3042182,11.9831726 99.4737452,12.0501949 99.6077919,12.1842416 C99.7418385,12.3182882 99.8088608,12.4878153 99.8088608,12.6928278 L99.8088608,13.9938622 C100.234656,13.3157439 100.845742,12.751968 101.642137,12.3025174 C102.438531,11.8530669 103.254627,11.628345 104.090447,11.628345 Z M120.605602,17.258276 C120.605602,17.4475183 120.534637,17.6091604 120.392706,17.743207 C120.250774,17.8772536 120.085189,17.944276 119.895947,17.944276 L110.954292,17.944276 C110.954292,18.8904876 111.147474,19.7381228 111.533844,20.487207 C111.920213,21.2362911 112.472162,21.8276645 113.189706,22.2613449 C113.907249,22.6950252 114.754885,22.9118621 115.732637,22.9118621 C116.489606,22.9118621 117.167714,22.7541625 117.766981,22.4387586 C118.366249,22.1233548 118.847232,21.7212209 119.209947,21.2323449 C119.383419,21.0904131 119.549004,21.0194483 119.706706,21.0194483 C119.864407,21.0194483 120.006337,21.0825282 120.132499,21.2086897 C120.25866,21.3348513 120.32174,21.4767809 120.32174,21.6344828 C120.32174,21.8079549 120.24289,21.9735395 120.085188,22.1312414 C119.580542,22.746279 118.945801,23.2509176 118.180947,23.6451724 C117.416093,24.0394273 116.607882,24.2365517 115.756292,24.2365517 C114.541987,24.2365517 113.46963,23.9763474 112.539188,23.455931 C111.608747,22.9355147 110.883329,22.2061541 110.362913,21.2678276 C109.842496,20.3295011 109.582292,19.2453166 109.582292,18.0152415 C109.582292,16.7220856 109.838554,15.5905912 110.351085,14.6207243 C110.863616,13.6508574 111.545667,12.9096694 112.397257,12.3971381 C113.248848,11.8846068 114.15562,11.628345 115.117602,11.628345 C116.063814,11.628345 116.950874,11.8491244 117.778809,12.2906899 C118.606744,12.7322553 119.28091,13.3788235 119.801326,14.230414 C120.321743,15.0820044 120.589832,16.0912817 120.605602,17.258276 Z M115.117602,13.000345 C114.202931,13.000345 113.355296,13.3157442 112.574671,13.9465519 C111.794047,14.5773596 111.29335,15.4841322 111.072568,16.6668967 L119.138981,16.6668967 L119.138981,16.4776553 C119.06013,15.7679966 118.823581,15.1490258 118.429326,14.6207243 C118.035071,14.0924228 117.54226,13.6902889 116.950878,13.4143105 C116.359496,13.1383321 115.74841,13.000345 115.117602,13.000345 Z M130.757516,11.6993106 C130.962528,11.6993106 131.132055,11.7663329 131.266102,11.9003795 C131.400149,12.0344262 131.467171,12.2039532 131.467171,12.4089657 L131.467171,22.8408966 C131.467171,24.0867419 131.222737,25.151214 130.733861,26.0343448 C130.244985,26.9174756 129.566877,27.5876988 128.699516,28.0450344 C127.832155,28.50237 126.854418,28.7310344 125.766275,28.7310344 C125.103926,28.7310344 124.484956,28.6600696 123.909344,28.5181379 C123.333732,28.3762061 122.85669,28.1869666 122.478206,27.9504137 C122.147032,27.7454012 121.981447,27.5167368 121.981447,27.2644137 C121.981447,27.2328734 121.997217,27.1540236 122.028757,27.027862 C122.076068,26.8701601 122.154918,26.7518854 122.265309,26.6730344 C122.375701,26.5941835 122.493975,26.5547586 122.620137,26.5547586 C122.714758,26.5547586 122.809378,26.5784135 122.903999,26.6257241 C123.913291,27.1776809 124.875259,27.4536551 125.78993,27.4536551 C127.098856,27.4536551 128.135731,27.0436362 128.900585,26.2235862 C129.665439,25.4035361 130.047861,24.2838692 130.047861,22.8645517 L130.047861,22.0366207 C129.653606,22.6989689 129.085887,23.2312049 128.344688,23.6333448 C127.603489,24.0354848 126.799221,24.2365517 125.931861,24.2365517 C124.559854,24.2365517 123.519037,23.8265328 122.809378,23.0064828 C122.099719,22.1864327 121.744895,21.0746507 121.744895,19.6711035 L121.744895,12.4089657 C121.744895,12.2039532 121.811918,12.0344262 121.945964,11.9003795 C122.080011,11.7663329 122.249538,11.6993106 122.454551,11.6993106 C122.659563,11.6993106 122.82909,11.7663329 122.963137,11.9003795 C123.097183,12.0344262 123.164206,12.2039532 123.164206,12.4089657 L123.164206,19.458207 C123.164206,20.5936609 123.412583,21.4531236 123.909344,22.0366207 C124.406105,22.6201179 125.182775,22.9118621 126.239378,22.9118621 C126.885956,22.9118621 127.504927,22.75022 128.096309,22.4269311 C128.687691,22.1036421 129.16079,21.6778533 129.515619,21.1495518 C129.870449,20.6212503 130.047861,20.0574743 130.047861,19.458207 L130.047861,12.4089657 C130.047861,12.2039532 130.114883,12.0344262 130.24893,11.9003795 C130.382976,11.7663329 130.552503,11.6993106 130.757516,11.6993106 Z M144.173843,7.44137959 C144.378856,7.44137959 144.548383,7.50445942 144.68243,7.63062097 C144.816476,7.75678252 144.883499,7.92236706 144.883499,8.12737958 C144.883499,8.3323921 144.816476,8.49403416 144.68243,8.61231061 C144.548383,8.73058706 144.378856,8.7897244 144.173843,8.7897244 L139.277223,8.7897244 L139.277223,23.2903448 C139.277223,23.4953574 139.206258,23.6648844 139.064326,23.798931 C138.922395,23.9329777 138.748925,24 138.543913,24 C138.32313,24 138.145718,23.9329777 138.011671,23.798931 C137.877625,23.6648844 137.810602,23.4953574 137.810602,23.2903448 L137.810602,8.7897244 L132.913982,8.7897244 C132.708969,8.7897244 132.539442,8.72664457 132.405395,8.60048302 C132.271349,8.47432147 132.204326,8.30873692 132.204326,8.10372441 C132.204326,7.91448209 132.271349,7.75678252 132.405395,7.63062097 C132.539442,7.50445942 132.708969,7.44137959 132.913982,7.44137959 L144.173843,7.44137959 Z M150.115137,11.628345 C150.430541,11.628345 150.7144,11.6914249 150.966723,11.8175864 C151.219046,11.943748 151.345206,12.1329874 151.345206,12.3853105 C151.345206,12.6060933 151.282126,12.7835053 151.155964,12.9175519 C151.029803,13.0515986 150.879988,13.1186209 150.706516,13.1186209 C150.627665,13.1186209 150.473908,13.079196 150.24524,13.000345 C150.016572,12.921494 149.799735,12.8820692 149.594723,12.8820692 C149.011226,12.8820692 148.43168,13.106791 147.856068,13.5562416 C147.280456,14.0056921 146.807357,14.585238 146.436757,15.2948967 C146.066158,16.0045554 145.880861,16.7220885 145.880861,17.4475174 L145.880861,23.2903448 C145.880861,23.4953574 145.813839,23.6648844 145.679792,23.798931 C145.545745,23.9329777 145.376218,24 145.171206,24 C144.966193,24 144.796666,23.9329777 144.66262,23.798931 C144.528573,23.6648844 144.461551,23.4953574 144.461551,23.2903448 L144.461551,12.6928278 C144.461551,12.4878153 144.528573,12.3182882 144.66262,12.1842416 C144.796666,12.0501949 144.966193,11.9831726 145.171206,11.9831726 C145.376218,11.9831726 145.545745,12.0501949 145.679792,12.1842416 C145.813839,12.3182882 145.880861,12.4878153 145.880861,12.6928278 L145.880861,14.7744829 C146.243575,13.8755819 146.791581,13.1304514 147.524895,12.5390692 C148.258209,11.9476869 149.121615,11.6441152 150.115137,11.628345 Z M161.426154,11.9122071 C161.631167,11.9122071 161.800694,11.9831719 161.93474,12.1251037 C162.068787,12.2670354 162.135809,12.4405049 162.135809,12.6455174 L162.135809,23.2903448 C162.135809,23.4953574 162.068787,23.6648844 161.93474,23.798931 C161.800694,23.9329777 161.631167,24 161.426154,24 C161.221141,24 161.051614,23.9329777 160.917568,23.798931 C160.783521,23.6648844 160.716499,23.4953574 160.716499,23.2903448 L160.716499,21.7054483 C160.322244,22.415107 159.730871,23.0143654 158.942361,23.5032414 C158.153851,23.9921174 157.294389,24.2365517 156.363947,24.2365517 C155.307344,24.2365517 154.357204,23.9605775 153.513499,23.4086207 C152.669794,22.8566639 152.007455,22.099706 151.526465,21.1377242 C151.045474,20.1757424 150.804982,19.0955003 150.804982,17.8969656 C150.804982,16.6984309 151.049416,15.6221313 151.538292,14.6680346 C152.027168,13.7139379 152.693449,12.9688075 153.537154,12.4326209 C154.380859,11.8964343 155.315229,11.628345 156.340292,11.628345 C157.286504,11.628345 158.153851,11.8570094 158.942361,12.314345 C159.730871,12.7716806 160.322244,13.370939 160.716499,14.1121381 L160.716499,12.6455174 C160.716499,12.4405049 160.783521,12.2670354 160.917568,12.1251037 C161.051614,11.9831719 161.221141,11.9122071 161.426154,11.9122071 Z M156.505878,22.9118621 C157.325928,22.9118621 158.063174,22.6950252 158.717637,22.2613449 C159.3721,21.8276645 159.884623,21.2284062 160.255223,20.4635518 C160.625823,19.6986974 160.81112,18.8431772 160.81112,17.8969656 C160.81112,16.9822944 160.625823,16.1464867 160.255223,15.3895174 C159.884623,14.6325481 159.3721,14.0372322 158.717637,13.6035519 C158.063174,13.1698716 157.325928,12.9530347 156.505878,12.9530347 C155.685828,12.9530347 154.948583,13.1659291 154.29412,13.5917243 C153.639657,14.0175195 153.127133,14.6049504 152.756533,15.3540346 C152.385934,16.1031188 152.200637,16.950754 152.200637,17.8969656 C152.200637,18.8431772 152.381991,19.6986974 152.744706,20.4635518 C153.10742,21.2284062 153.616001,21.8276645 154.270464,22.2613449 C154.924927,22.6950252 155.670058,22.9118621 156.505878,22.9118621 Z M169.874895,11.628345 C171.341523,11.628345 172.417823,12.0580764 173.103826,12.9175519 C173.78983,13.7770275 174.132826,14.9164069 174.132826,16.3357243 L174.132826,23.2903448 C174.132826,23.4953574 174.061862,23.6648844 173.91993,23.798931 C173.777998,23.9329777 173.612414,24 173.423171,24 C173.218159,24 173.048632,23.9329777 172.914585,23.798931 C172.780538,23.6648844 172.713516,23.4953574 172.713516,23.2903448 L172.713516,16.4066898 C172.713516,15.3816272 172.457254,14.549762 171.944723,13.9110691 C171.432192,13.2723763 170.639751,12.9530347 169.567378,12.9530347 C168.88926,12.9530347 168.246634,13.1107342 167.639482,13.4261381 C167.032329,13.741542 166.539518,14.1633883 166.161033,14.6916898 C165.782549,15.2199913 165.593309,15.7916522 165.593309,16.4066898 L165.593309,23.2903448 C165.593309,23.4953574 165.526287,23.6648844 165.39224,23.798931 C165.258194,23.9329777 165.088667,24 164.883654,24 C164.678642,24 164.509115,23.9329777 164.375068,23.798931 C164.241021,23.6648844 164.173999,23.4953574 164.173999,23.2903448 L164.173999,12.6928278 C164.173999,12.4878153 164.241021,12.3182882 164.375068,12.1842416 C164.509115,12.0501949 164.678642,11.9831726 164.883654,11.9831726 C165.088667,11.9831726 165.258194,12.0501949 165.39224,12.1842416 C165.526287,12.3182882 165.593309,12.4878153 165.593309,12.6928278 L165.593309,13.9938622 C166.019105,13.3157439 166.63019,12.751968 167.426585,12.3025174 C168.22298,11.8530669 169.039075,11.628345 169.874895,11.628345 Z M175.485016,22.0839311 C175.358855,21.8789186 175.295775,21.705449 175.295775,21.5635173 C175.295775,21.3585048 175.39828,21.2008052 175.603292,21.0904138 C175.697913,20.9957927 175.824073,20.9484828 175.981775,20.9484828 C176.171017,20.9484828 176.344487,21.0273326 176.502189,21.1850345 C177.43263,22.4151096 178.670572,23.0301379 180.216051,23.0301379 C180.97302,23.0301379 181.631416,22.8527259 182.191258,22.4978966 C182.751099,22.1430672 183.031016,21.6266011 183.031016,20.9484828 C183.031016,20.2861347 182.770812,19.789381 182.250395,19.458207 C181.729979,19.1270329 181.004561,18.8431737 180.07412,18.6066208 C178.765194,18.2754467 177.740146,17.8457154 176.998947,17.3174139 C176.257748,16.7891124 175.887154,16.012442 175.887154,14.9873795 C175.887154,14.3408015 176.068509,13.7612556 176.431223,13.2487243 C176.793938,12.736193 177.286749,12.3380016 177.909671,12.0541381 C178.532594,11.7702747 179.2383,11.628345 180.026809,11.628345 C180.704928,11.628345 181.386978,11.7584472 182.072982,12.0186554 C182.758985,12.2788636 183.346416,12.6928249 183.835292,13.2605519 C183.977224,13.3709433 184.048189,13.5286428 184.048189,13.7336553 C184.048189,13.9228977 183.969339,14.0884822 183.811637,14.230414 C183.701245,14.3250351 183.559316,14.372345 183.385844,14.372345 C183.228142,14.372345 183.086212,14.3092652 182.960051,14.1831036 C182.581566,13.7573084 182.132122,13.4340243 181.611706,13.2132416 C181.091289,12.9924589 180.531456,12.8820692 179.932189,12.8820692 C179.19099,12.8820692 178.556249,13.0555387 178.027947,13.4024829 C177.499646,13.7494272 177.235499,14.2698358 177.235499,14.9637243 C177.267039,15.594532 177.554841,16.0755157 178.098913,16.4066898 C178.642984,16.7378638 179.44331,17.037493 180.499913,17.3055863 C181.319963,17.5105988 181.998071,17.7392632 182.534258,17.9915863 C183.070444,18.2439094 183.50806,18.5987334 183.84712,19.056069 C184.186179,19.5134047 184.355706,20.120548 184.355706,20.8775173 C184.355706,21.9025799 183.945687,22.7186751 183.125637,23.3258276 C182.305587,23.93298 181.288425,24.2365517 180.07412,24.2365517 C178.150156,24.2365517 176.62047,23.5190187 175.485016,22.0839311 Z M189.80024,7.84351752 C189.295594,7.84351752 188.905288,8.00910206 188.629309,8.34027613 C188.353331,8.67145019 188.215344,9.12877894 188.215344,9.71227611 L188.215344,12.1487588 L190.864723,12.1487588 C191.038195,12.1487588 191.191952,12.2118387 191.325999,12.3380002 C191.460046,12.4641617 191.527068,12.6218613 191.527068,12.8111036 C191.527068,13.000346 191.460046,13.1580455 191.325999,13.2842071 C191.191952,13.4103686 191.038195,13.4734485 190.864723,13.4734485 L188.215344,13.4734485 L188.215344,23.2903448 C188.215344,23.4953574 188.148322,23.6648844 188.014275,23.798931 C187.880228,23.9329777 187.710701,24 187.505689,24 C187.300676,24 187.131149,23.9329777 186.997103,23.798931 C186.863056,23.6648844 186.796034,23.4953574 186.796034,23.2903448 L186.796034,13.4734485 L185.069206,13.4734485 C184.879964,13.4734485 184.722264,13.4064261 184.596103,13.2723795 C184.469941,13.1383328 184.406861,12.9845758 184.406861,12.8111036 C184.406861,12.6060911 184.469941,12.4444491 184.596103,12.3261726 C184.722264,12.2078962 184.879964,12.1487588 185.069206,12.1487588 L186.796034,12.1487588 L186.796034,9.71227611 C186.796034,8.71875391 187.083835,7.94996851 187.659447,7.40589683 C188.235059,6.86182516 189.003845,6.5897934 189.965827,6.5897934 C190.407392,6.5897934 190.817411,6.65681572 191.195896,6.79086236 C191.57438,6.92490901 191.76362,7.14174592 191.76362,7.44137959 C191.76362,7.63062191 191.70054,7.78832148 191.574378,7.91448303 C191.448217,8.04064458 191.306287,8.10372441 191.148585,8.10372441 C191.006653,8.10372441 190.833184,8.06429952 190.628171,7.98544855 C190.281227,7.89082739 190.005253,7.84351752 189.80024,7.84351752 Z M202.483258,17.258276 C202.483258,17.4475183 202.412293,17.6091604 202.270361,17.743207 C202.128429,17.8772536 201.962845,17.944276 201.773602,17.944276 L192.831947,17.944276 C192.831947,18.8904876 193.025129,19.7381228 193.411499,20.487207 C193.797869,21.2362911 194.349817,21.8276645 195.067361,22.2613449 C195.784905,22.6950252 196.63254,22.9118621 197.610292,22.9118621 C198.367261,22.9118621 199.04537,22.7541625 199.644637,22.4387586 C200.243904,22.1233548 200.724888,21.7212209 201.087602,21.2323449 C201.261075,21.0904131 201.426659,21.0194483 201.584361,21.0194483 C201.742063,21.0194483 201.883993,21.0825282 202.010154,21.2086897 C202.136316,21.3348513 202.199396,21.4767809 202.199396,21.6344828 C202.199396,21.8079549 202.120546,21.9735395 201.962844,22.1312414 C201.458198,22.746279 200.823457,23.2509176 200.058603,23.6451724 C199.293748,24.0394273 198.485538,24.2365517 197.633947,24.2365517 C196.419642,24.2365517 195.347285,23.9763474 194.416844,23.455931 C193.486403,22.9355147 192.760985,22.2061541 192.240568,21.2678276 C191.720152,20.3295011 191.459947,19.2453166 191.459947,18.0152415 C191.459947,16.7220856 191.716209,15.5905912 192.228741,14.6207243 C192.741272,13.6508574 193.423322,12.9096694 194.274913,12.3971381 C195.126503,11.8846068 196.033276,11.628345 196.995258,11.628345 C197.941469,11.628345 198.828529,11.8491244 199.656465,12.2906899 C200.4844,12.7322553 201.158565,13.3788235 201.678982,14.230414 C202.199398,15.0820044 202.467487,16.0912817 202.483258,17.258276 Z M196.995258,13.000345 C196.080587,13.000345 195.232951,13.3157442 194.452327,13.9465519 C193.671702,14.5773596 193.171006,15.4841322 192.950223,16.6668967 L201.016637,16.6668967 L201.016637,16.4776553 C200.937786,15.7679966 200.701237,15.1490258 200.306982,14.6207243 C199.912727,14.0924228 199.419916,13.6902889 198.828534,13.4143105 C198.237151,13.1383321 197.626065,13.000345 196.995258,13.000345 Z M209.394413,11.628345 C209.709817,11.628345 209.993676,11.6914249 210.245999,11.8175864 C210.498322,11.943748 210.624482,12.1329874 210.624482,12.3853105 C210.624482,12.6060933 210.561402,12.7835053 210.43524,12.9175519 C210.309079,13.0515986 210.159264,13.1186209 209.985792,13.1186209 C209.906941,13.1186209 209.753184,13.079196 209.524516,13.000345 C209.295849,12.921494 209.079012,12.8820692 208.873999,12.8820692 C208.290502,12.8820692 207.710956,13.106791 207.135344,13.5562416 C206.559732,14.0056921 206.086633,14.585238 205.716034,15.2948967 C205.345434,16.0045554 205.160137,16.7220885 205.160137,17.4475174 L205.160137,23.2903448 C205.160137,23.4953574 205.093115,23.6648844 204.959068,23.798931 C204.825022,23.9329777 204.655494,24 204.450482,24 C204.245469,24 204.075942,23.9329777 203.941896,23.798931 C203.807849,23.6648844 203.740827,23.4953574 203.740827,23.2903448 L203.740827,12.6928278 C203.740827,12.4878153 203.807849,12.3182882 203.941896,12.1842416 C204.075942,12.0501949 204.245469,11.9831726 204.450482,11.9831726 C204.655494,11.9831726 204.825022,12.0501949 204.959068,12.1842416 C205.093115,12.3182882 205.160137,12.4878153 205.160137,12.6928278 L205.160137,14.7744829 C205.522852,13.8755819 206.070858,13.1304514 206.804172,12.5390692 C207.537486,11.9476869 208.400891,11.6441152 209.394413,11.628345 Z" id="MoneyTransfer" fill="#676767" fill-rule="nonzero"></path>
            </g>
        </g>
    </g>
</svg>